<?xml version="1.0" encoding="UTF-8" standalone="no"?>
<!-- Created with Inkscape (http://www.inkscape.org/) -->

<svg
   xmlns:dc="http://purl.org/dc/elements/1.1/"
   xmlns:cc="http://creativecommons.org/ns#"
   xmlns:rdf="http://www.w3.org/1999/02/22-rdf-syntax-ns#"
   xmlns:svg="http://www.w3.org/2000/svg"
   xmlns="http://www.w3.org/2000/svg"
   xmlns:sodipodi="http://sodipodi.sourceforge.net/DTD/sodipodi-0.dtd"
   xmlns:inkscape="http://www.inkscape.org/namespaces/inkscape"
   width="88.900002mm"
   height="50.799999mm"
   viewBox="0 0 88.900001 50.800002"
   version="1.1"
   id="svg8"
   inkscape:version="0.92.3 (2405546, 2018-03-11)"
   sodipodi:docname="osaa_visitkort_ny_bagside.svg"
   inkscape:export-filename="H:\Users\Kasper\Desktop\osaa_visitkort_ny_bagside.png"
   inkscape:export-xdpi="360"
   inkscape:export-ydpi="360">
  <defs
     id="defs2" />
  <sodipodi:namedview
     id="base"
     pagecolor="#ffffff"
     bordercolor="#666666"
     borderopacity="1.0"
     inkscape:pageopacity="0.0"
     inkscape:pageshadow="2"
     inkscape:zoom="2.8"
     inkscape:cx="149.14149"
     inkscape:cy="99.473894"
     inkscape:document-units="mm"
     inkscape:current-layer="layer4"
     showgrid="false"
     units="mm"
     showguides="true"
     inkscape:guide-bbox="true"
     inkscape:window-width="2560"
     inkscape:window-height="1387"
     inkscape:window-x="-8"
     inkscape:window-y="-8"
     inkscape:window-maximized="1"
     inkscape:snap-global="false"
     inkscape:snap-intersection-paths="true"
     inkscape:measure-start="15.165,121.393"
     inkscape:measure-end="83.2736,136.287">
    <sodipodi:guide
       position="-6.2484002,48.800001"
       orientation="0,1"
       id="guide5452"
       inkscape:locked="false"
       inkscape:label=""
       inkscape:color="rgb(0,0,255)" />
    <sodipodi:guide
       position="2.0000001,58.586312"
       orientation="1,0"
       id="guide5454"
       inkscape:locked="false"
       inkscape:label=""
       inkscape:color="rgb(0,0,255)" />
    <sodipodi:guide
       position="-15.024554,2.0000001"
       orientation="0,1"
       id="guide5456"
       inkscape:locked="false"
       inkscape:label=""
       inkscape:color="rgb(0,0,255)" />
    <sodipodi:guide
       position="86.900002,60.098217"
       orientation="1,0"
       id="guide5458"
       inkscape:locked="false"
       inkscape:label=""
       inkscape:color="rgb(0,0,255)" />
  </sodipodi:namedview>
  <metadata
     id="metadata5">
    <rdf:RDF>
      <cc:Work
         rdf:about="">
        <dc:format>image/svg+xml</dc:format>
        <dc:type
           rdf:resource="http://purl.org/dc/dcmitype/StillImage" />
        <dc:title />
      </cc:Work>
    </rdf:RDF>
  </metadata>
  <g
     inkscape:groupmode="layer"
     id="layer4"
     inkscape:label="white">
    <rect
       style="opacity:1;fill:#ffffff;fill-opacity:1;stroke:none;stroke-width:0.108;stroke-linecap:square;stroke-linejoin:miter;stroke-miterlimit:4;stroke-dasharray:none;stroke-dashoffset:0;stroke-opacity:1;paint-order:stroke markers fill"
       id="rect1428"
       width="138.90625"
       height="98.557289"
       x="-22.206102"
       y="-26.496132"
       inkscape:export-xdpi="360"
       inkscape:export-ydpi="360" />
  </g>
  <g
     inkscape:groupmode="layer"
     id="layer2"
     inkscape:label="Background"
     sodipodi:insensitive="true">
    <g
       transform="matrix(0.11747775,0,0,0.11747775,9.9356459,-8.75063)"
       id="g5509"
       style="fill:#ececec" />
    <g
       style="fill:#ececec"
       id="g5515"
       transform="matrix(0.11747775,0,0,0.11747775,29.160646,-12.95563)" />
    <g
       transform="matrix(0.11747775,0,0,0.11747775,48.385646,-17.16063)"
       id="g5519"
       style="fill:#ececec" />
    <g
       style="fill:#ececec"
       id="g5523"
       transform="matrix(0.11747775,0,0,0.11747775,67.610646,-21.36563)">
      <path
         id="path6564"
         style="fill:#f5f5f5;fill-opacity:1"
         d="m -444.3853,347.35396 -7.795,7.112 3.143,14.241 57.782,-52.765 -12.081,-3.922 -7.506,6.84 -15.801,-5.039 -2.21,-10.065 -17.879,-5.776 -14.93,13.614 3.607,16.334 10.112,3.213 z m -97.165,-69.562 -2.255,-10.289 -14.399,-4.652 16.851,76.681 11.802,-10.772 -2.113,-9.662 11.967,-10.894 9.406,3 12.132,-11.079 -4.205,-19.219 -15.749,-5.089 -7.649,6.973 z m 28.752,62.013 -9.876,-3.147 -11.595,10.603 75,23.838 -3.17,-14.422 -9.996,-3.17 -3.538,-16.207 7.709,-7.044 -3.634,-16.3 -19.178,-6.106 -11.988,10.955 2.194,10.122 z m 69.022,-51.912 17.89,5.81 7.931,-7.249 15.783,5.033 2.362,10.646 11.851,3.856 -16.885,-76.85 -9.239,8.414 2.343,10.602 -12.285,11.157 -10.403,-3.323 -13.646,12.377 z m -57.914,-66.796 7.717,-7.023 -3.12,-14.166 -57.995,52.933 14.48,4.665 7.745,-7.102 15.805,5.054 2.278,10.418 15.181,4.908 15.121,-13.778 -3.653,-16.524 -9.973,-3.175 z m 70.587,5.828 9.695,3.08 9.514,-8.608 -74.978,-23.861 3.132,14.201 10.101,3.224 3.553,16.21 -7.791,7.114 3.635,16.434 18.98,6.034 14.063,-12.797 -2.172,-9.854 z m 163.63727,-34.43592 9.695,3.08 9.514,-8.608 -74.978,-23.861 3.132,14.201 10.101,3.224 3.553,16.21 -7.791,7.114 3.635,16.434 18.98,6.034 14.063,-12.797 -2.172,-9.854 z m -70.587,-5.828 7.717,-7.023 -3.12,-14.166 -57.995,52.933 14.48,4.665 7.745,-7.102 15.805,5.054 2.278,10.418 15.181,4.908 15.121,-13.778 -3.653,-16.524 -9.973,-3.175 z m 57.914,66.796 17.89,5.81 7.931,-7.249 15.783,5.033 2.362,10.646 11.851,3.856 -16.885,-76.85 -9.239,8.414 2.343,10.602 -12.285,11.157 -10.403,-3.323 -13.646,12.377 z m -69.022,51.912 -9.876,-3.147 -11.595,10.603 75,23.838 -3.17,-14.422 -9.996,-3.17 -3.538,-16.207 7.709,-7.044 -3.634,-16.3 -19.178,-6.106 -11.988,10.955 2.194,10.122 z m -28.752,-62.013 -2.255,-10.289 -14.399,-4.652 16.851,76.681 11.802,-10.772 -2.113,-9.662 11.967,-10.894 9.406,3 12.132,-11.079 -4.205,-19.219 -15.749,-5.089 -7.649,6.973 z m 97.165,69.562 -7.795,7.112 3.143,14.241 57.782,-52.765 -12.081,-3.922 -7.506,6.84 -15.801,-5.039 -2.21,-10.065 -17.879,-5.776 -14.93,13.614 3.607,16.334 10.112,3.213 z m 176.93001,-156.22302 9.695,3.08 9.514,-8.608 -74.978,-23.861 3.132,14.201 10.101,3.224 3.553,16.21 -7.791,7.114 3.635,16.434 18.98,6.034 14.063,-12.797 -2.172,-9.854 z m -70.587,-5.828 7.717,-7.023 -3.12,-14.166 -57.995,52.933 14.48,4.665 7.745,-7.102 15.805,5.054 2.278,10.418 15.181,4.908 15.121,-13.778 -3.653,-16.524 -9.973,-3.175 z m 57.914,66.796 17.89,5.81 7.931,-7.249 15.783,5.033 2.362,10.646 11.851,3.856 -16.885,-76.85 -9.239,8.414 2.343,10.602 -12.285,11.157 -10.403,-3.323 -13.646,12.377 z m -69.022,51.912 -9.876,-3.147 -11.595,10.603 75,23.838 -3.17,-14.422 -9.996,-3.17 -3.538,-16.207 7.709,-7.044 -3.634,-16.3 -19.178,-6.106 -11.988,10.955 2.194,10.122 z m -28.752,-62.013 -2.255,-10.289 -14.399,-4.652 16.851,76.681 11.802,-10.772 -2.113,-9.662 11.967,-10.894 9.406,3 12.132,-11.079 -4.205,-19.219 -15.749,-5.089 -7.649,6.973 z m 97.165,69.562 -7.795,7.112 3.143,14.241 57.782,-52.765 -12.081,-3.922 -7.506,6.84 -15.801,-5.039 -2.21,-10.065 -17.879,-5.776 -14.93,13.614 3.607,16.334 10.112,3.213 z m 176.93001,-156.22301 9.695,3.08 9.514,-8.608 -74.9779999,-23.860998 3.132,14.200998 10.1009999,3.224 3.553,16.21 -7.791,7.114 3.635,16.434 18.98,6.034 14.063,-12.797 -2.172,-9.854 z m -70.587,-5.828 7.7170001,-7.023 -3.12,-14.165998 -57.9950001,52.932998 14.48,4.665 7.745,-7.102 15.805,5.054 2.278,10.418 15.1810001,4.908 15.121,-13.778 -3.653,-16.524 -9.973,-3.175 z m 57.914,66.796 17.89,5.81 7.931,-7.249 15.783,5.033 2.362,10.646 11.851,3.856 -16.885,-76.85 -9.239,8.414 2.343,10.602 -12.285,11.157 -10.403,-3.323 -13.646,12.377 z m -69.022,51.912 -9.876,-3.147 -11.595,10.603 75,23.838 -3.17,-14.422 -9.996,-3.17 -3.538,-16.207 7.709,-7.044 -3.634,-16.3 -19.17799994,-6.106 -11.98800006,10.955 2.1940001,10.122 z m -28.752,-62.013 -2.255,-10.289 -14.399,-4.652 16.851,76.681 11.802,-10.772 -2.113,-9.662 11.967,-10.894 9.406,3 12.1320001,-11.079 -4.2050001,-19.219 -15.749,-5.089 -7.649,6.973 z m 97.165,69.562 -7.795,7.112 3.143,14.241 57.782,-52.765 -12.081,-3.922 -7.506,6.84 -15.801,-5.039 -2.21,-10.065 -17.879,-5.776 -14.93,13.614 3.607,16.334 10.112,3.213 z M 223.478,85.107 l 9.695,3.08 9.514,-8.608 -74.978,-23.861 3.132,14.201 10.101,3.224 3.553,16.21 -7.791,7.114 3.635,16.434 18.98,6.034 14.063,-12.797 -2.172,-9.854 z m -70.587,-5.828 7.717,-7.023 -3.12,-14.166 -57.995,52.933 14.48,4.665 7.745,-7.102 15.805,5.054 2.278,10.418 15.181,4.908 15.121,-13.778 -3.653,-16.524 -9.973,-3.175 z m 57.914,66.796 17.89,5.81 7.931,-7.249 15.783,5.033 2.362,10.646 11.851,3.856 -16.885,-76.85 -9.239,8.414 2.343,10.602 -12.285,11.157 -10.403,-3.323 -13.646,12.377 z m -69.022,51.912 -9.876,-3.147 -11.595,10.603 75,23.838 -3.17,-14.422 -9.996,-3.17 -3.538,-16.207 7.709,-7.044 -3.634,-16.3 -19.178,-6.106 -11.988,10.955 2.194,10.122 z m -28.752,-62.013 -2.255,-10.289 -14.399,-4.652 16.851,76.681 11.802,-10.772 -2.113,-9.662 11.967,-10.894 9.406,3 12.132,-11.079 -4.205,-19.219 -15.749,-5.089 -7.649,6.973 z m 97.165,69.562 -7.795,7.112 3.143,14.241 57.782,-52.765 -12.081,-3.922 -7.506,6.84 -15.801,-5.039 -2.21,-10.065 -17.879,-5.776 -14.93,13.614 3.607,16.334 10.112,3.213 z m -528.61805,145.4114 9.695,3.08 9.514,-8.608 -74.978,-23.861 3.132,14.201 10.101,3.224 3.553,16.21 -7.791,7.114 3.635,16.434 18.98,6.034 14.063,-12.797 -2.172,-9.854 z m -70.587,-5.828 7.717,-7.023 -3.12,-14.166 -57.995,52.933 14.48,4.665 7.745,-7.102 15.805,5.054 2.278,10.418 15.181,4.908 15.121,-13.778 -3.653,-16.524 -9.973,-3.175 z m 57.914,66.796 17.89,5.81 7.931,-7.249 15.783,5.033 2.362,10.646 11.851,3.856 -16.885,-76.85 -9.239,8.414 2.343,10.602 -12.285,11.157 -10.403,-3.323 -13.646,12.377 z m -69.022,51.912 -9.876,-3.147 -11.595,10.603 75,23.838 -3.17,-14.422 -9.996,-3.17 -3.538,-16.207 7.709,-7.044 -3.634,-16.3 -19.178,-6.106 -11.988,10.955 2.194,10.122 z m -28.752,-62.013 -2.255,-10.289 -14.399,-4.652 16.851,76.681 11.802,-10.772 -2.113,-9.662 11.967,-10.894 9.406,3 12.132,-11.079 -4.205,-19.219 -15.749,-5.089 -7.649,6.973 z m 97.165,69.562 -7.795,7.112 3.143,14.241 57.782,-52.765 -12.081,-3.922 -7.506,6.84 -15.801,-5.039 -2.21,-10.065 -17.879,-5.776 -14.93,13.614 3.607,16.334 10.112,3.213 z m 176.93001,-156.22302 9.695,3.08 9.514,-8.608 -74.978,-23.861 3.132,14.201 10.101,3.224 3.553,16.21 -7.791,7.114 3.635,16.434 18.98,6.034 14.063,-12.797 -2.172,-9.854 z m -70.587,-5.828 7.717,-7.023 -3.12,-14.166 -57.995,52.933 14.48,4.665 7.745,-7.102 15.805,5.054 2.278,10.418 15.181,4.908 15.121,-13.778 -3.653,-16.524 -9.973,-3.175 z m 57.914,66.796 17.89,5.81 7.931,-7.249 15.78301,5.033 2.362,10.646 11.851,3.856 -16.88501,-76.85 -9.239,8.414 2.343,10.602 -12.285,11.157 -10.403,-3.323 -13.646,12.377 z m -69.022,51.912 -9.876,-3.147 -11.595,10.603 75,23.838 -3.17,-14.422 -9.996,-3.17 -3.538,-16.207 7.709,-7.044 -3.634,-16.3 -19.178,-6.106 -11.988,10.955 2.194,10.122 z m -28.752,-62.013 -2.255,-10.289 -14.399,-4.652 16.851,76.681 11.802,-10.772 -2.113,-9.662 11.967,-10.894 9.406,3 12.132,-11.079 -4.205,-19.219 -15.749,-5.089 -7.649,6.973 z m 97.165,69.562 -7.795,7.112 3.143,14.241 57.78201,-52.765 -12.081,-3.922 -7.50601,6.84 -15.801,-5.039 -2.21,-10.065 -17.879,-5.776 -14.93,13.614 3.607,16.334 10.112,3.213 z M 8.8739762,279.35937 l 9.6949998,3.08 9.514,-8.608 -74.978,-23.861 3.132,14.201 10.101,3.224 3.553,16.21 -7.791,7.114 3.635,16.434 18.98,6.034 14.063,-12.797 -2.1719996,-9.854 z m -70.5870002,-5.828 7.717,-7.023 -3.12,-14.166 -57.994996,52.933 14.48,4.665 7.744993,-7.102 15.805003,5.054 2.278,10.418 15.181,4.908 15.121,-13.778 -3.653,-16.524 -9.973,-3.175 z m 57.9140004,66.796 17.8899996,5.81 7.931,-7.249 15.783,5.033 2.362,10.646 11.851,3.856 -16.885,-76.85 -9.239,8.414 2.343,10.602 -12.285,11.157 -10.4029999,-3.323 -13.6459998,12.377 z m -69.0220004,51.912 -9.876,-3.147 -11.595003,10.603 75.000003,23.838 -3.17,-14.422 -9.996,-3.17 -3.538,-16.207 7.709,-7.044 -3.634,-16.3 -19.178,-6.106 -11.988,10.955 2.194,10.122 z m -28.751996,-62.013 -2.255,-10.289 -14.399,-4.652 16.851,76.681 11.801996,-10.772 -2.113,-9.662 11.967,-10.894 9.406,3 12.132,-11.079 -4.205,-19.219 -15.749,-5.089 -7.649,6.973 z m 97.1649964,69.562 -7.7950004,7.112 3.1430003,14.241 57.7819997,-52.765 -12.081,-3.922 -7.506,6.84 -15.801,-5.039 -2.21,-10.065 -17.8789996,-5.776 -14.9300004,13.614 3.607,16.334 10.1120003,3.213 z M 172.52198,243.56536 l 9.695,3.08 9.514,-8.608 -74.978,-23.86101 3.132,14.201 10.101,3.224 3.553,16.21001 -7.791,7.114 3.635,16.434 18.98,6.034 14.063,-12.797 -2.172,-9.854 z m -70.587,-5.828 7.717,-7.02301 -3.12,-14.166 -57.994994,52.93301 14.479997,4.665 7.744999,-7.102 15.804996,5.054 2.278,10.418 15.181002,4.908 15.121,-13.778 -3.653,-16.524 -9.973,-3.175 z m 57.914,66.796 17.89,5.81 7.931,-7.249 15.783,5.033 2.362,10.646 11.851,3.856 -16.885,-76.85 -9.239,8.414 2.343,10.602 -12.285,11.157 -10.403,-3.323 -13.646,12.377 z m -69.022003,51.912 -9.875998,-3.147 -11.594997,10.603 74.999998,23.838 -3.17,-14.422 -9.996,-3.17 -3.538,-16.207 7.709,-7.044 -3.634,-16.3 -19.178,-6.106 -11.988,10.955 2.194,10.122 z m -28.751993,-62.013 -2.255,-10.289 -14.398998,-4.652 16.850998,76.681 11.801997,-10.772 -2.113,-9.662 11.966998,-10.894 9.405998,3 12.132003,-11.079 -4.205,-19.219 -15.749002,-5.089 -7.648998,6.973 z m 97.164996,69.562 -7.795,7.112 3.143,14.241 57.782,-52.765 -12.081,-3.922 -7.506,6.84 -15.801,-5.039 -2.21,-10.065 -17.879,-5.776 -14.93,13.614 3.607,16.334 10.112,3.213 z m 61.64562,282.2113 -7.795,7.112 3.143,14.241 57.782,-52.765 -12.081,-3.922 -7.506,6.84 -15.801,-5.039 -2.21,-10.065 -17.879,-5.776 -14.93,13.614 3.607,16.334 10.112,3.213 z m -97.165,-69.562 -2.255,-10.289 -14.399,-4.652 16.851,76.681 11.802,-10.772 -2.113,-9.662 11.96699,-10.894 9.406,3 12.13201,-11.079 -4.205,-19.219 -15.74901,-5.089 -7.64899,6.973 z m 28.75199,62.013 -9.876,-3.147 -11.59499,10.603 75,23.838 -3.17,-14.422 -9.996,-3.17 -3.538,-16.207 7.709,-7.044 -3.634,-16.3 -19.178,-6.106 -11.988,10.955 2.194,10.122 z m 69.02201,-51.912 17.89,5.81 7.931,-7.249 15.783,5.033 2.362,10.646 11.851,3.856 -16.885,-76.85 -9.239,8.414 2.343,10.602 -12.285,11.157 -10.403,-3.323 -13.646,12.377 z m -57.914,-66.796 7.717,-7.02301 -3.12,-14.166 -57.995,52.93301 14.48,4.665 7.745,-7.102 15.80499,5.054 2.278,10.418 15.18101,4.908 15.121,-13.778 -3.653,-16.524 -9.973,-3.175 z m 70.587,5.828 9.695,3.08 9.514,-8.608 -74.978,-23.86101 3.132,14.201 10.101,3.224 3.553,16.21001 -7.791,7.114 3.635,16.434 18.98,6.034 14.063,-12.797 -2.172,-9.854 z m -176.930004,156.22301 -7.795,7.112 3.143,14.241 57.781994,-52.765 -12.080994,-3.922 -7.506,6.84 -15.801,-5.039 -2.21,-10.065 -17.879,-5.776 -14.93,13.614 3.607,16.334 10.112,3.213 z m -97.164996,-69.562 -2.255,-10.289 -14.399,-4.652 16.851,76.681 11.801996,-10.772 -2.113,-9.662 11.967,-10.894 9.406,3 12.1319996,-11.079 -4.20499996,-19.219 -15.74899964,-5.089 -7.649,6.973 z m 28.751996,62.013 -9.876,-3.147 -11.595003,10.603 75.000003,23.838 -3.17,-14.422 -9.996,-3.17 -3.538,-16.207 7.709,-7.044 -3.634,-16.3 -19.178,-6.106 -11.9880004,10.955 2.19400004,10.122 z m 69.022,-51.912 17.89,5.81 7.931,-7.249 15.783,5.033 2.362004,10.646 11.85099,3.856 -16.884994,-76.85 -9.239,8.414 2.343,10.602 -12.285,11.157 -10.403,-3.323 -13.646,12.377 z m -57.91400036,-66.796 7.71699996,-7.023 -3.12,-14.166 -57.9949956,52.933 14.48,4.665 7.744993,-7.102 15.805003,5.054 2.278,10.418 15.1809996,4.908 15.1210004,-13.778 -3.653,-16.524 -9.9730004,-3.175 z m 70.58700036,5.828 9.695,3.08 9.514,-8.608 -74.978,-23.861 3.132,14.201 10.101,3.224 3.553,16.21 -7.791,7.114 3.635,16.434 18.98,6.034 14.063,-12.797 -2.172,-9.854 z m -176.930016,156.22301 -7.795,7.112 3.143,14.241 57.78201,-52.765 -12.081,-3.922 -7.50601,6.84 -15.801,-5.039 -2.21,-10.065 -17.879,-5.776 -14.93,13.614 3.607,16.334 10.112,3.213 z m -97.165,-69.562 -2.255,-10.289 -14.399,-4.652 16.851,76.681 11.802,-10.772 -2.113,-9.662 11.967,-10.894 9.406,3 12.132,-11.079 -4.205,-19.219 -15.749,-5.089 -7.649,6.973 z m 28.752,62.013 -9.876,-3.147 -11.595,10.603 75,23.838 -3.17,-14.422 -9.996,-3.17 -3.538,-16.207 7.709,-7.044 -3.634,-16.3 -19.178,-6.106 -11.988,10.955 2.194,10.122 z m 69.022,-51.912 17.89,5.81 7.931,-7.249 15.78301,5.033 2.362,10.646 11.851,3.856 -16.88501,-76.85 -9.239,8.414 2.343,10.602 -12.285,11.157 -10.403,-3.323 -13.646,12.377 z m -57.914,-66.796 7.717,-7.023 -3.12,-14.166 -57.995,52.933 14.48,4.665 7.745,-7.102 15.805,5.054 2.278,10.418 15.181,4.908 15.121,-13.778 -3.653,-16.524 -9.973,-3.175 z m 70.587,5.828 9.695,3.08 9.514,-8.608 -74.978,-23.861 3.132,14.201 10.101,3.224 3.553,16.21 -7.791,7.114 3.635,16.434 18.98,6.034 14.063,-12.797 -2.172,-9.854 z m -176.93001,156.22302 -7.795,7.112 3.143,14.241 57.782,-52.765 -12.081,-3.922 -7.506,6.84 -15.801,-5.039 -2.21,-10.065 -17.879,-5.776 -14.93,13.614 3.607,16.334 10.112,3.213 z m -97.165,-69.562 -2.255,-10.289 -14.399,-4.652 16.851,76.681 11.802,-10.772 -2.113,-9.662 11.967,-10.894 9.406,3 12.132,-11.079 -4.205,-19.219 -15.749,-5.089 -7.649,6.973 z m 28.752,62.013 -9.876,-3.147 -11.595,10.603 75,23.838 -3.17,-14.422 -9.996,-3.17 -3.538,-16.207 7.709,-7.044 -3.634,-16.3 -19.178,-6.106 -11.988,10.955 2.194,10.122 z m 69.022,-51.912 17.89,5.81 7.931,-7.249 15.783,5.033 2.362,10.646 11.851,3.856 -16.885,-76.85 -9.239,8.414 2.343,10.602 -12.285,11.157 -10.403,-3.323 -13.646,12.377 z m -57.914,-66.796 7.717,-7.023 -3.12,-14.166 -57.995,52.933 14.48,4.665 7.745,-7.102 15.805,5.054 2.278,10.418 15.181,4.908 15.121,-13.778 -3.653,-16.524 -9.973,-3.175 z m 70.587,5.828 9.695,3.08 9.514,-8.608 -74.978,-23.861 3.132,14.201 10.101,3.224 3.553,16.21 -7.791,7.114 3.635,16.434 18.98,6.034 14.063,-12.797 -2.172,-9.854 z m 528.61805,-145.4114 -7.795,7.112 3.143,14.241 57.782,-52.765 -12.081,-3.922 -7.506,6.84 -15.801,-5.039 -2.21,-10.065 -17.879,-5.776 -14.93,13.614 3.607,16.334 10.112,3.213 z m -97.165,-69.562 -2.255,-10.289 -14.399,-4.652 16.851,76.681 11.802,-10.772 -2.113,-9.662 11.967,-10.894 9.406,3 12.132,-11.079 -4.205,-19.219 -15.749,-5.089 -7.649,6.973 z m 28.752,62.013 -9.876,-3.147 -11.595,10.603 75,23.838 -3.17,-14.422 -9.996,-3.17 -3.538,-16.207 7.709,-7.044 -3.634,-16.3 -19.178,-6.106 -11.988,10.955 2.194,10.122 z m 69.022,-51.912 17.89,5.81 7.931,-7.249 15.783,5.033 2.362,10.646 11.851,3.856 -16.885,-76.85 -9.239,8.414 2.343,10.602 -12.285,11.157 -10.403,-3.323 -13.646,12.377 z m -57.914,-66.796 7.717,-7.023 -3.12,-14.166 -57.995,52.933 14.48,4.665 7.745,-7.102 15.805,5.054 2.278,10.418 15.181,4.908 15.121,-13.778 -3.653,-16.524 -9.973,-3.175 z m 70.587,5.828 9.695,3.08 9.514,-8.608 -74.978,-23.861 3.132,14.201 10.101,3.224 3.553,16.21 -7.791,7.114 3.635,16.434 18.98,6.034 14.063,-12.797 -2.172,-9.854 z m -176.93001,156.22301 -7.795,7.112 3.143,14.241 57.782,-52.765 -12.081,-3.922 -7.506,6.84 -15.801,-5.039 -2.21,-10.065 -17.879,-5.776 -14.93,13.614 3.607,16.334 10.112,3.213 z m -97.165,-69.562 -2.2550004,-10.289 -14.399,-4.652 16.8510004,76.681 11.802,-10.772 -2.113,-9.662 11.967,-10.894 9.406,3 12.132,-11.079 -4.205,-19.219 -15.749,-5.089 -7.649,6.973 z m 28.752,62.013 -9.876,-3.147 -11.595,10.603 75,23.838 -3.17,-14.422 -9.996,-3.17 -3.538,-16.207 7.709,-7.044 -3.634,-16.3 -19.178,-6.106 -11.988,10.955 2.194,10.122 z m 69.022,-51.912 17.89,5.81 7.931,-7.249 15.783,5.033 2.362,10.646 11.851,3.856 -16.885,-76.85 -9.239,8.414 2.343,10.602 -12.285,11.157 -10.403,-3.323 -13.646,12.377 z m -57.914,-66.796 7.717,-7.023 -3.12,-14.166 -57.9950004,52.933 14.4800004,4.665 7.745,-7.102 15.805,5.054 2.278,10.418 15.181,4.908 15.121,-13.778 -3.653,-16.524 -9.973,-3.175 z m 70.587,5.828 9.695,3.08 9.514,-8.608 -74.978,-23.861 3.132,14.201 10.101,3.224 3.553,16.21 -7.791,7.114 3.635,16.434 18.98,6.034 14.063,-12.797 -2.172,-9.854 z m -176.93001,156.22301 -7.795,7.112 3.143,14.241 57.7819996,-52.765 -12.0809996,-3.922 -7.506,6.84 -15.801,-5.039 -2.21,-10.065 -17.879,-5.776 -14.93,13.614 3.607,16.334 10.112,3.213 z m -97.165,-69.562 -2.255,-10.289 -14.399,-4.652 16.851,76.681 11.802,-10.772 -2.113,-9.662 11.967,-10.894 9.406,3 12.132,-11.079 -4.205,-19.219 -15.749,-5.089 -7.649,6.973 z m 28.752,62.013 -9.876,-3.147 -11.595,10.603 75,23.838 -3.17,-14.422 -9.996,-3.17 -3.538,-16.207 7.709,-7.044 -3.634,-16.3 -19.178,-6.106 -11.988,10.955 2.194,10.122 z m 69.022,-51.912 17.89,5.81 7.931,-7.249 15.783,5.033 2.362,10.646 11.85099964,3.856 -16.88499964,-76.85 -9.239,8.414 2.343,10.602 -12.285,11.157 -10.403,-3.323 -13.646,12.377 z m -57.914,-66.796 7.717,-7.023 -3.12,-14.166 -57.995,52.933 14.48,4.665 7.745,-7.102 15.805,5.054 2.278,10.418 15.181,4.908 15.121,-13.778 -3.652996,-16.524 -9.973004,-3.175 z m 70.587,5.828 9.695,3.08 9.514,-8.608 -74.977996,-23.861 3.131996,14.201 10.101,3.224 3.553,16.21 -7.791,7.114 3.635,16.434 18.98,6.034 14.063,-12.797 -2.172,-9.854 z m -176.93001,156.22302 -7.795,7.112 3.143,14.241 57.782,-52.765 -12.081,-3.922 -7.506,6.84 -15.801,-5.039 -2.21,-10.065 -17.879,-5.776 -14.93,13.614 3.607,16.334 10.112,3.213 z m -97.165,-69.562 -2.255,-10.289 -14.399,-4.652 16.851,76.681 11.802,-10.772 -2.113,-9.662 11.967,-10.894 9.406,3 12.132,-11.079 -4.205,-19.219 -15.749,-5.089 -7.649,6.973 z m 28.752,62.013 -9.876,-3.147 -11.595,10.603 75,23.838 -3.17,-14.422 -9.996,-3.17 -3.538,-16.207 7.709,-7.044 -3.634,-16.3 -19.178,-6.106 -11.988,10.955 2.194,10.122 z m 69.022,-51.912 17.89,5.81 7.931,-7.249 15.783,5.033 2.362,10.646 11.851,3.856 -16.885,-76.85 -9.239,8.414 2.343,10.602 -12.285,11.157 -10.403,-3.323 -13.646,12.377 z m -57.914,-66.796 7.717,-7.023 -3.12,-14.166 -57.995,52.933 14.48,4.665 7.745,-7.102 15.805,5.054 2.278,10.418 15.181,4.908 15.121,-13.778 -3.653,-16.524 -9.973,-3.175 z m 70.587,5.828 9.695,3.08 9.514,-8.608 -74.978,-23.861 3.132,14.201 10.101,3.224 3.553,16.21 -7.791,7.114 3.635,16.434 18.98,6.034 14.063,-12.797 -2.172,-9.854 z m -327.97681,70.71255 9.695,3.08 9.514,-8.608 -74.978,-23.861 3.132,14.201 10.101,3.224 3.553,16.21 -7.791,7.114 3.635,16.434 18.98,6.034 14.063,-12.797 -2.172,-9.854 z m -12.673,60.968 17.89,5.81 7.931,-7.249 15.783,5.033 2.362,10.646 11.851,3.856 -16.885,-76.85 -9.239,8.414 2.343,10.602 -12.285,11.157 -10.403,-3.323 -13.646,12.377 z m -14.279,40.035 c -9.84634,-21.41599 -4.92317,-10.708 0,0 z m 190.60001,-136.79701 9.695,3.08 9.514,-8.608 -74.978,-23.861 3.132,14.201 10.101,3.224 3.553,16.21 -7.791,7.114 3.635,16.434 18.98,6.034 14.063,-12.797 -2.172,-9.854 z m -70.587,-5.828 7.717,-7.023 -3.12,-14.166 -57.995,52.933 14.48,4.665 7.745,-7.102 15.805,5.054 2.278,10.418 15.181,4.908 15.121,-13.778 -3.653,-16.524 -9.973,-3.175 z m 57.914,66.796 17.89,5.81 7.931,-7.249 15.783,5.033 2.362,10.646 11.851,3.856 -16.885,-76.85 -9.239,8.414 2.343,10.602 -12.285,11.157 -10.403,-3.323 -13.646,12.377 z m -69.022,51.912 -9.876,-3.147 -11.595,10.603 c 21.53763,-0.40196 79.66452,45.05937 71.83,9.416 l -9.996,-3.17 -3.538,-16.207 7.709,-7.044 -3.634,-16.3 -19.178,-6.106 -11.988,10.955 2.194,10.122 z m -28.752,-62.013 -2.255,-10.289 -14.399,-4.652 16.851,76.681 11.802,-10.772 -2.113,-9.662 11.967,-10.894 9.406,3 12.132,-11.079 -4.205,-19.219 -15.749,-5.089 -7.649,6.973 z m 97.165,69.562 -7.795,7.112 c -0.14554,35.89615 46.99603,-25.80444 60.925,-38.524 l -12.081,-3.922 -7.506,6.84 -15.801,-5.039 -2.21,-10.065 -17.879,-5.776 -14.93,13.614 3.607,16.334 10.112,3.213 z m -93.44302,8.64035 c -65.763,-16.26422 -32.8815,-8.13211 0,0 z m -10.221,2.372 c -58.949,-17.84555 -29.4745,-8.92278 0,0 z m -7.91026,-135.02048 -7.795,7.112 3.143,14.241 57.782,-52.765 -12.081,-3.922 -7.506,6.84 -15.801,-5.039 -2.21,-10.065 -17.879,-5.776 -14.93,13.614 3.607,16.334 10.112,3.213 z m -97.165,-69.562 -2.255,-10.289 -14.399,-4.652 16.851,76.681 11.802,-10.772 -2.113,-9.662 11.967,-10.894 9.406,3 12.132,-11.079 -4.205,-19.219 -15.749,-5.089 -7.649,6.973 z m 28.752,62.013 -9.876,-3.147 -11.595,10.603 75,23.838 -3.17,-14.422 -9.996,-3.17 -3.538,-16.207 7.709,-7.044 -3.634,-16.3 -19.178,-6.106 -11.988,10.955 2.194,10.122 z m 69.022,-51.912 17.89,5.81 7.931,-7.249 15.783,5.033 2.362,10.646 11.851,3.856 -16.885,-76.85 -9.239,8.414 2.343,10.602 -12.285,11.157 -10.403,-3.323 -13.646,12.377 z m -57.914,-66.796 7.717,-7.023 -3.12,-14.166 -57.995,52.933 14.48,4.665 7.745,-7.102 15.805,5.054 2.278,10.418 15.181,4.908 15.121,-13.778 -3.653,-16.524 -9.973,-3.175 z m 70.587,5.828 9.695,3.08 9.514,-8.608 -74.978,-23.861 3.132,14.201 10.101,3.224 3.553,16.21 -7.791,7.114 3.635,16.434 18.98,6.034 14.063,-12.797 -2.172,-9.854 z m -126.18211,-1.85575 -7.795,7.112 3.143,14.241 57.782,-52.765 -12.081,-3.922 -7.506,6.84 -15.801,-5.039 -2.21,-10.065 -17.879,-5.776 -14.93,13.614 3.607,16.334 10.112,3.213 z m -97.165,-69.562 -2.255,-10.289 -14.399,-4.652 16.851,76.681 11.802,-10.772 -2.113,-9.662 11.967,-10.894 9.406,3 12.132,-11.079 -4.205,-19.219 -15.749,-5.089 -7.649,6.973 z m 28.752,62.013 -9.876,-3.147 -11.595,10.603 75,23.838 -3.17,-14.422 -9.996,-3.17 -3.538,-16.207 7.709,-7.044 -3.634,-16.3 -19.178,-6.106 -11.988,10.955 2.194,10.122 z m 69.022,-51.912 17.89,5.81 7.931,-7.249 15.783,5.033 2.362,10.646 11.851,3.856 -16.885,-76.85 -9.239,8.414 2.343,10.602 -12.285,11.157 -10.403,-3.323 -13.646,12.377 z m -57.914,-66.796 7.717,-7.023 -3.12,-14.166 -57.995,52.933 14.48,4.665 7.745,-7.102 15.805,5.054 2.278,10.418 15.181,4.908 15.121,-13.778 -3.653,-16.524 -9.973,-3.175 z m 70.587,5.828 9.695,3.08 9.514,-8.608 -74.978,-23.861 3.132,14.201 10.101,3.224 3.553,16.21 -7.791,7.114 3.635,16.434 18.98,6.034 14.063,-12.797 -2.172,-9.854 z m 36.76943,-38.82555 -7.795,7.112 3.143,14.241 57.782,-52.765 -12.081,-3.922 -7.506,6.84 -15.801,-5.039 -2.21,-10.06501 -17.879,-5.776 -14.93,13.61401 3.607,16.334 10.112,3.213 z m -97.165,-69.56201 -2.255,-10.289 -14.399,-4.652 16.851,76.68101 11.802,-10.772 -2.113,-9.662 11.967,-10.894 9.406,3 12.132,-11.07901 -4.205,-19.219 -15.749,-5.089 -7.649,6.973 z m 28.752,62.01301 -9.876,-3.147 -11.595,10.603 75,23.838 -3.17,-14.422 -9.996,-3.17 -3.538,-16.207 7.709,-7.044 -3.634,-16.3 -19.178,-6.106 -11.988,10.955 2.194,10.122 z m 69.022,-51.91201 17.89,5.81 7.931,-7.249 15.783,5.033 2.362,10.646 11.851,3.856 -16.885,-76.85 -9.239,8.414 2.343,10.602 -12.285,11.157 -10.403,-3.323 -13.646,12.377 z m -57.914,-66.795997 7.717,-7.022999 -3.12,-14.166 -57.995,52.932996 14.48,4.665 7.745,-7.102 15.805,5.054 2.278,10.418 15.181,4.908 15.121,-13.778 -3.653,-16.524 -9.973,-3.175 z m 70.587,5.827997 9.695,3.08 9.514,-8.607997 -74.978,-23.860999 3.132,14.201 10.101,3.224 3.553,16.209996 -7.791,7.114 3.635,16.434 18.98,6.034 14.063,-12.797 -2.172,-9.854 z m 151.37584,84.88112 -7.795,7.112 3.143,14.241 57.782,-52.765 -12.081,-3.922 -7.506,6.84 -15.801,-5.039 -2.21,-10.06501 -17.879,-5.776 -14.93,13.61401 3.607,16.334 10.112,3.213 z m -97.165,-69.56201 -2.255,-10.289 -14.399,-4.652 16.851,76.68101 11.802,-10.772 -2.113,-9.662 11.967,-10.894 9.406,3 12.132,-11.07901 -4.205,-19.219 -15.749,-5.089 -7.649,6.973 z m 28.752,62.01301 -9.876,-3.147 -11.595,10.603 75,23.838 -3.17,-14.422 -9.996,-3.17 -3.538,-16.207 7.709,-7.044 -3.634,-16.3 -19.178,-6.106 -11.988,10.955 2.194,10.122 z m 69.022,-51.91201 17.89,5.81 7.931,-7.249 15.783,5.033 2.362,10.646 11.851,3.856 -16.885,-76.850002 -9.239,8.414 2.343,10.602 -12.285,11.157002 -10.403,-3.323002 -13.646,12.377002 z m -57.914,-66.795999 7.717,-7.022999 -3.12,-14.166 -57.995,52.932996 14.48,4.665 7.745,-7.102 15.805,5.054 2.278,10.418002 15.181,4.908 15.121,-13.778002 -3.653,-16.524 -9.973,-3.175 z m 70.587,5.827997 9.695,3.08 9.514,-8.607997 -74.978,-23.860999 3.132,14.201 10.101,3.224 3.553,16.209996 -7.791,7.114 3.635,16.434 18.98,6.034002 14.063,-12.797002 -2.172,-9.854 z"
         inkscape:connector-curvature="0" />
    </g>
  </g>
  <g
     inkscape:groupmode="layer"
     id="layer9"
     inkscape:label="hvem">
    <text
       xml:space="preserve"
       style="font-style:normal;font-variant:normal;font-weight:900;font-stretch:normal;font-size:2.82222223px;line-height:1.25;font-family:Bender;-inkscape-font-specification:'Bender Heavy';font-variant-ligatures:normal;font-variant-caps:normal;font-variant-numeric:normal;font-feature-settings:normal;text-align:start;letter-spacing:0px;word-spacing:0px;writing-mode:lr-tb;text-anchor:start;fill:#000000;fill-opacity:1;stroke:none;stroke-width:0.26458332"
       x="2.0436652"
       y="4.2431068"
       id="text6571"><tspan
         sodipodi:role="line"
         x="2.0436652"
         y="4.2431068"
         style="font-style:normal;font-variant:normal;font-weight:900;font-stretch:normal;font-size:2.82222223px;font-family:Bender;-inkscape-font-specification:'Bender Heavy';stroke-width:0.26458332"
         id="tspan6602">Open Space Aarhus (<tspan
   style="fill:#33ff00;fill-opacity:1"
   id="tspan6650">OSAA</tspan>) er en organisation</tspan><tspan
         sodipodi:role="line"
         x="2.0436652"
         y="7.7708845"
         style="font-style:normal;font-variant:normal;font-weight:900;font-stretch:normal;font-size:2.82222223px;font-family:Bender;-inkscape-font-specification:'Bender Heavy';stroke-width:0.26458332"
         id="tspan6598">med et enkelt formål: At skabe et åbent fysisk rum i Århus, </tspan><tspan
         sodipodi:role="line"
         x="2.0436652"
         y="11.298662"
         style="font-style:normal;font-variant:normal;font-weight:900;font-stretch:normal;font-size:2.82222223px;font-family:Bender;-inkscape-font-specification:'Bender Heavy';stroke-width:0.26458332"
         id="tspan6610">hvor teknisk interesserede og kreative mennesker</tspan><tspan
         sodipodi:role="line"
         x="2.0436652"
         y="14.82644"
         style="font-style:normal;font-variant:normal;font-weight:900;font-stretch:normal;font-size:2.82222223px;font-family:Bender;-inkscape-font-specification:'Bender Heavy';stroke-width:0.26458332"
         id="tspan6612">kan mødes om teknologi, udveksle erfaringer og idéer,</tspan><tspan
         sodipodi:role="line"
         x="2.0436652"
         y="18.354218"
         style="font-style:normal;font-variant:normal;font-weight:900;font-stretch:normal;font-size:2.82222223px;font-family:Bender;-inkscape-font-specification:'Bender Heavy';stroke-width:0.26458332"
         id="tspan6614">og ikke mindst socialisere og skabe kontakter </tspan><tspan
         sodipodi:role="line"
         x="2.0436652"
         y="21.881996"
         style="font-style:normal;font-variant:normal;font-weight:900;font-stretch:normal;font-size:2.82222223px;font-family:Bender;-inkscape-font-specification:'Bender Heavy';stroke-width:0.26458332"
         id="tspan6616">til andre ligesindede.</tspan><tspan
         sodipodi:role="line"
         x="2.0436652"
         y="25.409773"
         style="font-style:normal;font-variant:normal;font-weight:900;font-stretch:normal;font-size:2.82222223px;font-family:Bender;-inkscape-font-specification:'Bender Heavy';stroke-width:0.26458332"
         id="tspan6618" /><tspan
         sodipodi:role="line"
         x="2.0436652"
         y="28.937551"
         style="font-style:normal;font-variant:normal;font-weight:900;font-stretch:normal;font-size:2.82222223px;font-family:Bender;-inkscape-font-specification:'Bender Heavy';stroke-width:0.26458332"
         id="tspan6620">Vores medlemmer, spænder bredt af både alder og interesse</tspan><tspan
         sodipodi:role="line"
         x="2.0436652"
         y="32.465328"
         style="font-style:normal;font-variant:normal;font-weight:900;font-stretch:normal;font-size:2.82222223px;font-family:Bender;-inkscape-font-specification:'Bender Heavy';stroke-width:0.26458332"
         id="tspan6622">Kort sagt. Alle kan være med!</tspan><tspan
         sodipodi:role="line"
         x="2.0436652"
         y="35.993107"
         style="font-style:normal;font-variant:normal;font-weight:900;font-stretch:normal;font-size:2.82222223px;font-family:Bender;-inkscape-font-specification:'Bender Heavy';stroke-width:0.26458332"
         id="tspan6624">Som medlem, har man adgang til vores lokaler 24/7 og kan </tspan><tspan
         sodipodi:role="line"
         x="2.0436652"
         y="39.520885"
         style="font-style:normal;font-variant:normal;font-weight:900;font-stretch:normal;font-size:2.82222223px;font-family:Bender;-inkscape-font-specification:'Bender Heavy';stroke-width:0.26458332"
         id="tspan6626">frit benytte diverse faciliteter vi råder over, som omfatter:</tspan><tspan
         sodipodi:role="line"
         x="2.0436652"
         y="43.048664"
         style="font-style:normal;font-variant:normal;font-weight:900;font-stretch:normal;font-size:2.08138889px;font-family:Bender;-inkscape-font-specification:'Bender Heavy';stroke-width:0.26458332"
         id="tspan6630">Træ/Metal og <tspan
   style="fill:#33ff00;fill-opacity:1;font-size:2.08138889px"
   id="tspan6640">Elektronik</tspan> værksted(er), <tspan
   style="fill:#ff2338;fill-opacity:1;font-size:2.08138889px"
   id="tspan6646">Laserskærer</tspan>, 3D printere, CNC-Overfræser</tspan><tspan
         sodipodi:role="line"
         x="2.0436652"
         y="46.576439"
         style="font-style:normal;font-variant:normal;font-weight:900;font-stretch:normal;font-size:2.08138889px;font-family:Bender;-inkscape-font-specification:'Bender Heavy';stroke-width:0.26458332"
         id="tspan6638"><tspan
   style="fill:#002ff4;fill-opacity:1;font-size:2.08138889px"
   id="tspan6648">Drejebænk</tspan>, Symaskiner, borde og stole, tavler, Amatør radio og Meget mere!</tspan></text>
    <text
       xml:space="preserve"
       style="font-style:normal;font-variant:normal;font-weight:normal;font-stretch:normal;font-size:8.46666622px;line-height:1.25;font-family:Bender;-inkscape-font-specification:Bender;font-variant-ligatures:normal;font-variant-caps:normal;font-variant-numeric:normal;font-feature-settings:normal;text-align:start;letter-spacing:0px;word-spacing:0px;writing-mode:lr-tb;text-anchor:start;fill:#000000;fill-opacity:1;stroke:none;stroke-width:0.26458332"
       x="32.740517"
       y="42.648277"
       id="text6636"><tspan
         sodipodi:role="line"
         id="tspan6634"
         x="32.740517"
         y="50.460918"
         style="stroke-width:0.26458332" /></text>
  </g>
</svg>
