<?xml version="1.0" encoding="UTF-8" standalone="no"?>
<!-- Created with Inkscape (http://www.inkscape.org/) -->

<svg
   xmlns:dc="http://purl.org/dc/elements/1.1/"
   xmlns:cc="http://creativecommons.org/ns#"
   xmlns:rdf="http://www.w3.org/1999/02/22-rdf-syntax-ns#"
   xmlns:svg="http://www.w3.org/2000/svg"
   xmlns="http://www.w3.org/2000/svg"
   xmlns:sodipodi="http://sodipodi.sourceforge.net/DTD/sodipodi-0.dtd"
   xmlns:inkscape="http://www.inkscape.org/namespaces/inkscape"
   width="50.187092mm"
   height="55.876976mm"
   viewBox="0 0 50.187091 55.876975"
   version="1.1"
   id="svg8"
   inkscape:version="0.92.4 (5da689c313, 2019-01-14)"
   sodipodi:docname="OSAA logo symmetric.svg">
  <defs
     id="defs2" />
  <sodipodi:namedview
     id="base"
     pagecolor="#ffffff"
     bordercolor="#666666"
     borderopacity="1.0"
     inkscape:pageopacity="0.0"
     inkscape:pageshadow="2"
     inkscape:zoom="1.4142136"
     inkscape:cx="109.41135"
     inkscape:cy="144.08612"
     inkscape:document-units="mm"
     inkscape:current-layer="layer1"
     showgrid="false"
     showguides="true"
     inkscape:guide-bbox="true"
     inkscape:snap-bbox="true"
     inkscape:snap-bbox-edge-midpoints="true"
     inkscape:object-paths="true"
     inkscape:snap-center="true"
     inkscape:snap-bbox-midpoints="true"
     inkscape:snap-page="true"
     inkscape:window-width="1920"
     inkscape:window-height="1019"
     inkscape:window-x="0"
     inkscape:window-y="0"
     inkscape:window-maximized="1"
     inkscape:snap-object-midpoints="true"
     inkscape:bbox-nodes="true"
     inkscape:bbox-paths="true" />
  <metadata
     id="metadata5">
    <rdf:RDF>
      <cc:Work
         rdf:about="">
        <dc:format>image/svg+xml</dc:format>
        <dc:type
           rdf:resource="http://purl.org/dc/dcmitype/StillImage" />
        <dc:title></dc:title>
      </cc:Work>
    </rdf:RDF>
  </metadata>
  <g
     inkscape:label="Layer 1"
     inkscape:groupmode="layer"
     id="layer1"
     transform="translate(-111.4205,-91.087767)"
     style="display:inline">
    <g
       id="g4551"
       transform="matrix(0.25880155,0.05500997,-0.05500997,0.25880155,93.158208,73.999722)"
       inkscape:transform-center-x="14.068322"
       inkscape:transform-center-y="0.032743566" />
    <g
       inkscape:transform-center-y="14.157977"
       inkscape:transform-center-x="10.357629"
       transform="matrix(0.17704081,-0.19662373,0.19662373,0.17704081,72.13672,131.31739)"
       id="g4590" />
    <g
       id="g4594"
       transform="matrix(-0.08176074,-0.2516337,0.2516337,-0.08176074,111.26453,178.18137)"
       inkscape:transform-center-x="-10.414336"
       inkscape:transform-center-y="14.125234" />
    <g
       inkscape:transform-center-y="-0.032743373"
       inkscape:transform-center-x="-14.068321"
       transform="matrix(-0.25880155,-0.05500997,0.05500997,-0.25880155,171.41384,167.72768)"
       id="g4598" />
    <g
       id="g4602"
       transform="matrix(-0.17704081,0.19662373,-0.19662373,-0.17704081,192.43533,110.41001)"
       inkscape:transform-center-x="-10.35763"
       inkscape:transform-center-y="-14.157979" />
    <g
       inkscape:transform-center-x="17.025404"
       transform="matrix(0.08176074,0.2516337,-0.2516337,0.08176074,153.21397,66.383791)"
       id="g4606"
       style="fill:none;stroke:#000000" />
    <g
       style="fill:none;stroke:#000000"
       id="g6439"
       transform="matrix(-0.17704081,0.19662373,-0.19662373,-0.17704081,190.45372,107.16758)"
       inkscape:transform-center-x="12.546771"
       inkscape:transform-center-y="-17.101071" />
    <g
       inkscape:transform-center-y="-17.101072"
       inkscape:transform-center-x="-12.546775"
       transform="matrix(-0.25880155,-0.05500997,0.05500997,-0.25880155,173.7538,159.81004)"
       id="g6443"
       style="fill:none;stroke:#000000" />
    <g
       style="fill:none;stroke:#000000"
       id="g6447"
       transform="matrix(-0.08176074,-0.2516337,0.2516337,-0.08176074,119.81413,171.66872)"
       inkscape:transform-center-x="-17.025405"
       inkscape:transform-center-y="9.0824107e-06" />
    <g
       inkscape:transform-center-y="17.101079"
       inkscape:transform-center-x="-12.546766"
       transform="matrix(0.17704081,-0.19662373,0.19662373,0.17704081,82.574374,130.88493)"
       id="g6451"
       style="fill:none;stroke:#000000" />
    <g
       style="fill:none;stroke:#000000"
       id="g6455"
       transform="matrix(0.25880155,0.05500997,-0.05500997,0.25880155,99.274294,78.242461)"
       inkscape:transform-center-x="12.54678"
       inkscape:transform-center-y="17.101071">
      <path
         id="path6453"
         style="fill:#000000;stroke:none;stroke-width:1.20354486"
         d="m 169.99695,157.19778 4.23746,19.46369 -9.25423,8.33899 4.12387,19.49968 12.05763,3.91469 3.87331,17.79519 -89.243031,-28.99682 13.593331,-12.11993 12.05582,3.92024 14.79791,-13.35162 -2.5853,-12.18588 14.86865,-13.25574 z m 30.76714,-18.0818 18.97478,6.06209 2.59466,12.1839 18.94915,6.17846 9.41904,-8.48487 17.34774,5.54321 -69.7335,62.78832 -3.6995,-17.83213 9.42294,-8.48053 -4.16389,-19.49117 -11.84593,-3.85401 -4.04548,-19.5045 z m -0.27573,-35.68603 14.73732,-13.401589 11.84889,3.844903 14.82528,-13.321216 -2.63859,-12.399559 13.47443,-12.251979 19.50953,91.78514 -17.29283,-5.7122 -2.63288,-12.40077 -18.9618,-6.13956 -9.26063,8.33188 -18.91414,-6.24876 z m -31.0429,-17.604216 -4.23746,-19.46369 9.25423,-8.33899 -4.12387,-19.49968 -12.05763,-3.91469 -3.87331,-17.79519 89.24303,28.99682 -13.59333,12.11993 -12.05582,-3.92024 -14.79791,13.35162 2.5853,12.18588 -14.86865,13.25574 z M 138.67833,103.90757 119.70355,97.845473 117.10889,85.66158 98.159735,79.483116 88.740699,87.967985 71.392957,82.424774 141.12646,19.636453 l 3.6995,17.832135 -9.42294,8.480526 4.16389,19.491176 11.84593,3.854005 4.04548,19.504499 z m 0.27576,35.68602 -14.73732,13.4016 -11.8489,-3.84491 -14.825279,13.32122 2.638589,12.39956 -13.474427,12.25198 -19.509532,-91.785145 17.292833,5.712205 2.632882,12.40077 18.961794,6.13955 9.26063,-8.33187 18.91414,6.24876 z"
         inkscape:connector-curvature="0" />
    </g>
  </g>
</svg>
