<?xml version="1.0" encoding="UTF-8" standalone="no"?>
<!-- Created with Inkscape (http://www.inkscape.org/) -->

<svg
   xmlns:dc="http://purl.org/dc/elements/1.1/"
   xmlns:cc="http://creativecommons.org/ns#"
   xmlns:rdf="http://www.w3.org/1999/02/22-rdf-syntax-ns#"
   xmlns:svg="http://www.w3.org/2000/svg"
   xmlns="http://www.w3.org/2000/svg"
   xmlns:sodipodi="http://sodipodi.sourceforge.net/DTD/sodipodi-0.dtd"
   xmlns:inkscape="http://www.inkscape.org/namespaces/inkscape"
   width="50mm"
   height="55.754345mm"
   viewBox="0 0 49.999999 55.754344"
   version="1.1"
   id="svg8"
   inkscape:version="0.92.3 (2405546, 2018-03-11)"
   sodipodi:docname="OSAA logo symmetric.svg">
  <defs
     id="defs2" />
  <sodipodi:namedview
     id="base"
     pagecolor="#ffffff"
     bordercolor="#666666"
     borderopacity="1.0"
     inkscape:pageopacity="0.0"
     inkscape:pageshadow="2"
     inkscape:zoom="1.979899"
     inkscape:cx="43.554436"
     inkscape:cy="61.117381"
     inkscape:document-units="mm"
     inkscape:current-layer="layer1"
     showgrid="false"
     showguides="true"
     inkscape:guide-bbox="true"
     inkscape:snap-bbox="true"
     inkscape:snap-bbox-edge-midpoints="true"
     inkscape:object-paths="true"
     inkscape:snap-center="true"
     inkscape:snap-bbox-midpoints="true"
     inkscape:snap-page="true"
     inkscape:window-width="1920"
     inkscape:window-height="1147"
     inkscape:window-x="-8"
     inkscape:window-y="-8"
     inkscape:window-maximized="1" />
  <metadata
     id="metadata5">
    <rdf:RDF>
      <cc:Work
         rdf:about="">
        <dc:format>image/svg+xml</dc:format>
        <dc:type
           rdf:resource="http://purl.org/dc/dcmitype/StillImage" />
        <dc:title></dc:title>
      </cc:Work>
    </rdf:RDF>
  </metadata>
  <g
     inkscape:label="Layer 1"
     inkscape:groupmode="layer"
     id="layer1"
     transform="translate(-111.51405,-88.271907)"
     style="display:inline">
    <g
       id="g4551"
       transform="matrix(0.25880155,0.05500997,-0.05500997,0.25880155,93.158208,73.999722)"
       inkscape:transform-center-x="14.068322"
       inkscape:transform-center-y="0.032743566">
	
	
	
	
	
	
</g>
    <g
       inkscape:transform-center-y="14.157977"
       inkscape:transform-center-x="10.357629"
       transform="matrix(0.17704081,-0.19662373,0.19662373,0.17704081,72.13672,131.31739)"
       id="g4590">
	
	
	
	
	
	
</g>
    <g
       id="g4594"
       transform="matrix(-0.08176074,-0.2516337,0.2516337,-0.08176074,111.26453,178.18137)"
       inkscape:transform-center-x="-10.414336"
       inkscape:transform-center-y="14.125234">
	
	
	
	
	
	
</g>
    <g
       inkscape:transform-center-y="-0.032743373"
       inkscape:transform-center-x="-14.068321"
       transform="matrix(-0.25880155,-0.05500997,0.05500997,-0.25880155,171.41384,167.72768)"
       id="g4598">
	
	
	
	
	
	
</g>
    <g
       id="g4602"
       transform="matrix(-0.17704081,0.19662373,-0.19662373,-0.17704081,192.43533,110.41001)"
       inkscape:transform-center-x="-10.35763"
       inkscape:transform-center-y="-14.157979">
	
	
	
	
	
	
</g>
    <g
       inkscape:transform-center-y="-14.125238"
       inkscape:transform-center-x="10.414335"
       transform="matrix(0.08176074,0.2516337,-0.2516337,0.08176074,153.30752,63.546028)"
       id="g4606">
	
	
	
	
	
	
<path
   id="path4604"
   style="fill:#000000;stroke:none;stroke-width:1.20354486"
   d="m 136.72621,128.9142 2.35375,11.04175 -14.73732,13.4016 -11.8489,-3.84491 -14.825278,13.32122 2.638588,12.39955 -13.474428,12.25198 -9.739506,-45.89578 z m 0,-2e-5 -2.34083,-11.04449 -18.91414,-6.24877 -9.26064,8.33188 -18.961792,-6.13955 -2.632887,-12.40078 -17.292829,-5.71219 9.769988,45.88933 z m 10.21266,-31.913277 -8.38557,7.559287 -18.9748,-6.062102 -2.59465,-12.183906 -18.949149,-6.178458 -9.419039,8.484871 -17.347739,-5.543214 34.877167,-31.38255 z m 0,0 8.3944,-7.549476 -4.04547,-19.504512 -11.84596,-3.854006 -4.16388,-19.491171 9.42295,-8.480533 L 141.0014,20.289079 106.14506,51.6948 Z m 32.74405,-7.112241 -10.7393,-3.482469 -4.23748,-19.463704 9.25425,-8.338989 -4.12387,-19.499678 -12.05763,-3.914691 -3.87331,-17.79519 44.61667,14.513234 z m 1e-5,0 10.73524,3.495035 14.86866,-13.255748 -2.58531,-12.185894 14.79791,-13.351612 12.05583,3.920239 13.59333,-12.119932 -44.62633,-14.483607 z m 22.5314,24.801088 -2.35375,-11.04175 14.73732,-13.401608 11.8489,3.844917 14.82528,-13.32122 -2.63859,-12.399559 13.47443,-12.251978 9.73951,45.895788 z m 0,1e-5 2.34083,11.0445 18.91414,6.24877 9.26064,-8.33189 18.96179,6.13956 2.63289,12.40077 17.29284,5.7122 -9.77,-45.88933 z m -10.21265,31.91328 8.38557,-7.55928 18.9748,6.0621 2.59465,12.1839 18.94915,6.17846 9.41904,-8.48487 17.34774,5.54322 -34.87716,31.38255 z m 0,2e-5 -8.3944,7.54946 4.04548,19.50452 11.84595,3.854 4.16388,19.49117 -9.42295,8.48054 3.69952,17.83211 34.85633,-31.40572 z m -32.74405,7.11224 10.73932,3.48248 4.23746,19.46369 -9.25423,8.33899 4.12387,19.49968 12.05763,3.91469 3.87331,17.79519 -44.61667,-14.51324 z m -1e-5,0 -10.73523,-3.49503 -14.86866,13.25574 2.5853,12.18589 -14.79791,13.35162 -12.05582,-3.92024 -13.593321,12.11993 44.626311,14.48361 z"
   inkscape:connector-curvature="0" />
</g>
  </g>
</svg>
