<?xml version="1.0" encoding="UTF-8" standalone="no"?>
<!-- Generator: Adobe Illustrator 15.0.0, SVG Export Plug-In . SVG Version: 6.00 Build 0)  -->

<svg
   xmlns:dc="http://purl.org/dc/elements/1.1/"
   xmlns:cc="http://creativecommons.org/ns#"
   xmlns:rdf="http://www.w3.org/1999/02/22-rdf-syntax-ns#"
   xmlns:svg="http://www.w3.org/2000/svg"
   xmlns="http://www.w3.org/2000/svg"
   xmlns:sodipodi="http://sodipodi.sourceforge.net/DTD/sodipodi-0.dtd"
   xmlns:inkscape="http://www.inkscape.org/namespaces/inkscape"
   version="1.1"
   id="Layer_1"
   x="0px"
   y="0px"
   width="363px"
   height="285px"
   viewBox="0 0 363 285"
   enable-background="new 0 0 363 285"
   xml:space="preserve"
   sodipodi:docname="osaa_logo_tech_rgb.svg"
   inkscape:version="0.92.3 (2405546, 2018-03-11)"><metadata
   id="metadata5386"><rdf:RDF><cc:Work
       rdf:about=""><dc:format>image/svg+xml</dc:format><dc:type
         rdf:resource="http://purl.org/dc/dcmitype/StillImage" /></cc:Work></rdf:RDF></metadata><defs
   id="defs5384" /><sodipodi:namedview
   pagecolor="#ffffff"
   bordercolor="#666666"
   borderopacity="1"
   objecttolerance="10"
   gridtolerance="10"
   guidetolerance="10"
   inkscape:pageopacity="0"
   inkscape:pageshadow="2"
   inkscape:window-width="1920"
   inkscape:window-height="1147"
   id="namedview5382"
   showgrid="false"
   inkscape:zoom="2.3570226"
   inkscape:cx="128.52732"
   inkscape:cy="194.65682"
   inkscape:window-x="-8"
   inkscape:window-y="-8"
   inkscape:window-maximized="1"
   inkscape:current-layer="layer7"
   inkscape:snap-object-midpoints="true"
   inkscape:snap-bbox="true"
   inkscape:snap-bbox-midpoints="true"
   inkscape:snap-nodes="false"
   inkscape:snap-global="true"
   inkscape:measure-start="157.402,203.541"
   inkscape:measure-end="165.569,195.586" />
<g
   id="g5379">
	
	
</g><g
   inkscape:groupmode="layer"
   id="layer6"
   inkscape:label="Text"
   style="display:inline" /><g
   inkscape:groupmode="layer"
   id="layer7"
   inkscape:label="symmetric logo 12DEG"
   style="display:inline"><g
     style="display:inline"
     transform="matrix(1.0943166,-0.23260417,0.23260417,1.0943166,-113.08386,-38.508629)"
     id="layer1"
     inkscape:label="Layer 1"><g
       inkscape:transform-center-y="0.032743566"
       inkscape:transform-center-x="14.068322"
       transform="matrix(0.25880155,0.05500997,-0.05500997,0.25880155,93.158208,73.999722)"
       id="g4551" /><g
       id="g4590"
       transform="matrix(0.17704081,-0.19662373,0.19662373,0.17704081,72.13672,131.31739)"
       inkscape:transform-center-x="10.357629"
       inkscape:transform-center-y="14.157977" /><g
       inkscape:transform-center-y="14.125234"
       inkscape:transform-center-x="-10.414336"
       transform="matrix(-0.08176074,-0.2516337,0.2516337,-0.08176074,111.26453,178.18137)"
       id="g4594" /><g
       id="g4598"
       transform="matrix(-0.25880155,-0.05500997,0.05500997,-0.25880155,171.41384,167.72768)"
       inkscape:transform-center-x="-14.068321"
       inkscape:transform-center-y="-0.032743373" /><g
       inkscape:transform-center-y="-14.157979"
       inkscape:transform-center-x="-10.35763"
       transform="matrix(-0.17704081,0.19662373,-0.19662373,-0.17704081,192.43533,110.41001)"
       id="g4602" /><g
       id="g4606"
       transform="matrix(0.08176074,0.2516337,-0.2516337,0.08176074,153.30752,63.546028)"
       inkscape:transform-center-x="10.414335"
       inkscape:transform-center-y="-14.125238"><path
         inkscape:connector-curvature="0"
         d="m 136.72621,128.9142 2.35375,11.04175 -14.73732,13.4016 -11.8489,-3.84491 -14.825278,13.32122 2.638588,12.39955 -13.474428,12.25198 -9.739506,-45.89578 z m 0,-2e-5 -2.34083,-11.04449 -18.91414,-6.24877 -9.26064,8.33188 -18.961792,-6.13955 -2.632887,-12.40078 -17.292829,-5.71219 9.769988,45.88933 z m 10.21266,-31.913277 -8.38557,7.559287 -18.9748,-6.062102 -2.59465,-12.183906 -18.949149,-6.178458 -9.419039,8.484871 -17.347739,-5.543214 34.877167,-31.38255 z m 0,0 8.3944,-7.549476 -4.04547,-19.504512 -11.84596,-3.854006 -4.16388,-19.491171 9.42295,-8.480533 L 141.0014,20.289079 106.14506,51.6948 Z m 32.74405,-7.112241 -10.7393,-3.482469 -4.23748,-19.463704 9.25425,-8.338989 -4.12387,-19.499678 -12.05763,-3.914691 -3.87331,-17.79519 44.61667,14.513234 z m 1e-5,0 10.73524,3.495035 14.86866,-13.255748 -2.58531,-12.185894 14.79791,-13.351612 12.05583,3.920239 13.59333,-12.119932 -44.62633,-14.483607 z m 22.5314,24.801088 -2.35375,-11.04175 14.73732,-13.401608 11.8489,3.844917 14.82528,-13.32122 -2.63859,-12.399559 13.47443,-12.251978 9.73951,45.895788 z m 0,1e-5 2.34083,11.0445 18.91414,6.24877 9.26064,-8.33189 18.96179,6.13956 2.63289,12.40077 17.29284,5.7122 -9.77,-45.88933 z m -10.21265,31.91328 8.38557,-7.55928 18.9748,6.0621 2.59465,12.1839 18.94915,6.17846 9.41904,-8.48487 17.34774,5.54322 -34.87716,31.38255 z m 0,2e-5 -8.3944,7.54946 4.04548,19.50452 11.84595,3.854 4.16388,19.49117 -9.42295,8.48054 3.69952,17.83211 34.85633,-31.40572 z m -32.74405,7.11224 10.73932,3.48248 4.23746,19.46369 -9.25423,8.33899 4.12387,19.49968 12.05763,3.91469 3.87331,17.79519 -44.61667,-14.51324 z m -1e-5,0 -10.73523,-3.49503 -14.86866,13.25574 2.5853,12.18589 -14.79791,13.35162 -12.05582,-3.92024 -13.593321,12.11993 44.626311,14.48361 z"
         style="fill:#000000;stroke:none;stroke-width:1.20354486"
         id="path4604" /></g></g><text
     xml:space="preserve"
     style="font-style:normal;font-variant:normal;font-weight:900;font-stretch:normal;font-size:65.33333588px;line-height:0.94999999;font-family:bender;-inkscape-font-specification:'bender Heavy';letter-spacing:0px;word-spacing:0px;fill:#000000;fill-opacity:1;stroke:none"
     x="82.027512"
     y="127.81316"
     id="text5448"><tspan
       sodipodi:role="line"
       id="tspan5446"
       x="82.027512"
       y="127.81316"
       style="font-size:65.33333588px;line-height:0.94999999">OPEN</tspan><tspan
       sodipodi:role="line"
       x="82.027512"
       y="189.87984"
       id="tspan5450"
       style="font-size:65.33333588px;line-height:0.94999999">SPACE</tspan><tspan
       sodipodi:role="line"
       x="82.027512"
       y="251.9465"
       id="tspan5452"
       style="font-size:65.33333588px;line-height:0.94999999">AARHUS</tspan></text>
</g>
</svg>